<svg aria-hidden="true" style="position: absolute; width: 0; height: 0; overflow: hidden;" version="1.1" xmlns="http://www.w3.org/2000/svg" xmlns:xlink="http://www.w3.org/1999/xlink">
<defs>
<symbol id="icon-call_icon" viewBox="0 0 32 32">
<path d="M6.399 2.007c-0.539 0.060-1.147 0.254-1.68 0.53-1.253 0.661-2.186 1.948-2.433 3.366-0.054 0.301-0.056 0.705-0.056 10.069v9.757l0.068 0.304c0.429 1.939 1.8 3.309 3.739 3.739l0.304 0.068h19.602l0.304-0.068c1.939-0.429 3.31-1.8 3.739-3.739l0.068-0.304v-9.757c0-9.363-0.003-9.768-0.056-10.069-0.075-0.435-0.224-0.873-0.45-1.326-0.706-1.421-2.124-2.404-3.715-2.576-0.363-0.039-19.081-0.036-19.433 0.006zM17.043 6.962c1.025 0.128 1.853 0.375 2.762 0.819 0.893 0.438 1.466 0.852 2.223 1.606 0.709 0.712 1.102 1.251 1.519 2.088 0.581 1.168 0.911 2.557 0.968 4.085 0.021 0.521 0.006 0.638-0.113 0.786-0.227 0.289-0.724 0.242-0.894-0.084-0.054-0.107-0.068-0.199-0.086-0.616-0.030-0.641-0.075-1.055-0.164-1.549-0.352-1.94-1.281-3.488-2.765-4.6-1.236-0.93-2.514-1.383-4.188-1.481-0.566-0.033-0.665-0.054-0.793-0.152-0.238-0.188-0.25-0.629-0.021-0.834 0.141-0.128 0.239-0.146 0.724-0.131 0.253 0.009 0.626 0.038 0.829 0.062zM10.233 7.284c0.104 0.036 0.265 0.119 0.357 0.178 0.566 0.375 2.142 2.392 2.658 3.399 0.295 0.575 0.393 1.001 0.301 1.317-0.096 0.34-0.253 0.519-0.959 1.088-0.283 0.229-0.548 0.464-0.59 0.527-0.107 0.155-0.194 0.459-0.194 0.673 0.003 0.498 0.325 1.4 0.748 2.094 0.327 0.54 0.914 1.23 1.496 1.761 0.682 0.625 1.284 1.051 1.963 1.388 0.873 0.435 1.406 0.545 1.796 0.363 0.098-0.045 0.203-0.104 0.235-0.131 0.030-0.027 0.26-0.306 0.51-0.616 0.483-0.608 0.593-0.706 0.923-0.819 0.42-0.143 0.849-0.104 1.281 0.116 0.327 0.169 1.043 0.613 1.505 0.935 0.607 0.426 1.906 1.487 2.083 1.699 0.309 0.381 0.363 0.869 0.155 1.409-0.22 0.569-1.079 1.636-1.677 2.091-0.542 0.411-0.927 0.569-1.433 0.593-0.417 0.021-0.59-0.015-1.123-0.235-4.183-1.725-7.522-4.299-10.173-7.835-1.386-1.847-2.44-3.763-3.16-5.749-0.42-1.159-0.441-1.663-0.096-2.255 0.149-0.251 0.784-0.87 1.246-1.216 0.769-0.572 1.123-0.783 1.406-0.843 0.194-0.042 0.53-0.009 0.745 0.069zM17.248 9.122c1.809 0.265 3.209 1.105 4.127 2.469 0.515 0.769 0.837 1.672 0.947 2.64 0.039 0.354 0.039 1.001-0.003 1.108-0.039 0.102-0.164 0.238-0.271 0.295-0.116 0.060-0.363 0.054-0.501-0.018-0.23-0.116-0.298-0.301-0.298-0.801 0-0.771-0.2-1.585-0.545-2.216-0.397-0.722-0.961-1.308-1.642-1.72l-0.020-0.011c-0.599-0.358-1.484-0.623-2.291-0.689-0.292-0.024-0.453-0.083-0.563-0.211-0.088-0.096-0.141-0.224-0.141-0.365 0-0.115 0.036-0.222 0.097-0.31l-0.001 0.002c0.155-0.242 0.393-0.28 1.106-0.173zM17.883 11.371c0.587 0.125 1.037 0.348 1.421 0.709 0.494 0.468 0.766 1.034 0.885 1.847 0.080 0.53 0.047 0.739-0.14 0.911-0.176 0.161-0.501 0.167-0.697 0.015-0.143-0.107-0.188-0.22-0.221-0.527-0.039-0.408-0.11-0.694-0.233-0.959-0.262-0.563-0.724-0.854-1.504-0.95-0.367-0.045-0.477-0.086-0.596-0.226-0.218-0.26-0.134-0.68 0.166-0.835 0.113-0.056 0.161-0.062 0.411-0.047 0.155 0.009 0.384 0.036 0.506 0.062z"></path>
</symbol>
<symbol id="icon-github_icon" viewBox="0 0 32 32">
<path d="M15.996 2.946c-7.676 0-13.902 6.224-13.902 13.902 0 6.142 3.983 11.354 9.508 13.192 0.694 0.129 0.95-0.301 0.95-0.668 0-0.331-0.013-1.427-0.019-2.589-3.868 0.841-4.684-1.64-4.684-1.64-0.632-1.607-1.543-2.034-1.543-2.034-1.262-0.863 0.095-0.845 0.095-0.845 1.396 0.098 2.131 1.433 2.131 1.433 1.24 2.125 3.252 1.511 4.045 1.155 0.125-0.898 0.485-1.512 0.883-1.859-3.088-0.352-6.334-1.544-6.334-6.87 0-1.518 0.543-2.758 1.433-3.732-0.145-0.35-0.62-1.764 0.135-3.68 0 0 1.167-0.373 3.824 1.425 1.109-0.308 2.298-0.463 3.48-0.468 1.181 0.006 2.372 0.16 3.483 0.469 2.653-1.799 3.82-1.426 3.82-1.426 0.756 1.915 0.281 3.329 0.136 3.68 0.892 0.974 1.431 2.214 1.431 3.731 0 5.34-3.252 6.516-6.348 6.86 0.498 0.432 0.943 1.278 0.943 2.574 0 1.86-0.016 3.357-0.016 3.816 0 0.37 0.25 0.803 0.954 0.667 5.521-1.84 9.5-7.050 9.5-13.19 0-7.678-6.224-13.902-13.902-13.902z"></path>
<path d="M7.36 22.907c-0.030 0.069-0.139 0.090-0.238 0.042-0.102-0.045-0.158-0.14-0.125-0.209 0.030-0.071 0.138-0.091 0.239-0.043 0.101 0.045 0.158 0.141 0.124 0.209zM7.923 23.534c-0.067 0.062-0.196 0.033-0.284-0.064-0.090-0.097-0.107-0.226-0.040-0.289 0.068-0.061 0.194-0.032 0.285 0.064 0.090 0.098 0.108 0.227 0.040 0.289zM8.471 24.335c-0.085 0.060-0.225 0.004-0.31-0.12s-0.086-0.272 0.002-0.331c0.086-0.059 0.224-0.006 0.31 0.117 0.085 0.126 0.085 0.274-0.002 0.334zM9.222 25.109c-0.076 0.085-0.239 0.062-0.357-0.053-0.121-0.112-0.155-0.271-0.079-0.356 0.077-0.084 0.24-0.060 0.36 0.054 0.121 0.112 0.157 0.272 0.076 0.356zM10.258 25.558c-0.034 0.109-0.19 0.158-0.348 0.112-0.157-0.047-0.26-0.175-0.229-0.285 0.033-0.11 0.19-0.161 0.348-0.112 0.157 0.047 0.26 0.174 0.228 0.285zM11.396 25.641c0.003 0.115-0.13 0.21-0.295 0.212-0.166 0.004-0.301-0.089-0.303-0.201 0-0.116 0.13-0.21 0.296-0.213 0.165-0.003 0.301 0.089 0.301 0.203zM12.454 25.461c0.020 0.112-0.095 0.227-0.26 0.257-0.161 0.030-0.31-0.040-0.331-0.151-0.020-0.115 0.097-0.229 0.258-0.259 0.164-0.028 0.312 0.039 0.332 0.152z"></path>
</symbol>
<symbol id="icon-linkedin_icon" viewBox="0 0 32 32">
<path d="M16.975 15.298v-0.043c-0.012 0.019-0.021 0.033-0.031 0.047l0.003-0.004h0.028z"></path>
<path d="M27.81 2.635h-23.777c-1.138 0-2.061 0.901-2.061 2.011v24.055c0 1.11 0.923 2.011 2.061 2.011h23.777c1.14 0 2.063-0.901 2.063-2.011v-24.055c0-1.111-0.924-2.011-2.063-2.011zM10.429 26.139h-4.214v-12.678h4.214v12.678zM8.322 11.729h-0.028c-1.413 0-2.328-0.974-2.328-2.19 0-1.244 0.943-2.19 2.384-2.19s2.329 0.947 2.357 2.19c0 1.216-0.916 2.19-2.384 2.19zM25.625 26.139h-4.214v-6.784c0-1.704-0.61-2.867-2.134-2.867-1.164 0-1.857 0.784-2.163 1.542-0.111 0.27-0.138 0.649-0.138 1.028v7.081h-4.214s0.055-11.49 0-12.678h4.214v1.795c0.56-0.864 1.561-2.094 3.799-2.094 2.772 0 4.851 1.813 4.851 5.707v7.271z"></path>
</symbol>
<symbol id="icon-location_icon" viewBox="0 0 32 32">
<path d="M16 1.353c-6.038 0-10.932 4.894-10.932 10.932 0 8.13 8.742 17.063 10.932 17.063s10.932-8.933 10.932-17.062c0-6.038-4.894-10.932-10.932-10.932zM16 18.954c-3.664 0-6.633-2.97-6.633-6.634 0-1.452 0.468-2.794 1.259-3.886 0.071 1.421 1.241 2.546 2.674 2.546 1.478 0 2.677-1.198 2.677-2.677 0-0.012-0-0.023-0-0.035l0 0.002c-0.001-1.051-0.606-1.959-1.487-2.397l-0.016-0.007c0.458-0.113 0.985-0.179 1.526-0.179h0c3.663 0 6.633 2.97 6.633 6.633s-2.97 6.634-6.633 6.634z"></path>
</symbol>
<symbol id="icon-mail_icon" viewBox="0 0 32 32">
<path d="M30.009 8.237v0-0.668c-0.004-1.272-1.034-2.302-2.305-2.305h-0.001l-0.001 0.002 0.002-0.002-23.529 0.001c-1.272 0.004-2.302 1.034-2.305 2.305v15.751c0.004 1.272 1.034 2.302 2.305 2.306l22.639-0.001c2.419-0.028 3.145-0.626 3.2-2.303l-0.003-15.085zM25.985 5.827l-10.083 7.429-10.019-7.428h20.102zM5.566 11.6l9.35 6.441-9.356 6.505 0.006-12.946zM5.807 25.062l9.603-6.678 0.168 0.117c0.090 0.063 0.202 0.101 0.322 0.102h0c0.112 0 0.496-0.22 0.496-0.22l9.606 6.679h-20.196zM26.242 24.542l-9.351-6.502 9.35-6.44v12.941z"></path>
</symbol>
</defs>
</svg>
